<svg width="171" height="27" viewBox="0 0 171 27" fill="none" xmlns="http://www.w3.org/2000/svg">
<path d="M15.9279 25.9998V1.15976H21.5079V25.9998H15.9279ZM0.231934 25.9998V1.15976H5.81193V25.9998H0.231934ZM2.67993 15.9918V10.7718H19.0599V15.9918H2.67993Z" fill="white"/>
<path d="M33.1303 18.0798L23.6623 1.15976H29.9263L36.7303 13.6518L33.1303 18.0798ZM32.4463 25.9998V12.2838H37.9903V25.9998H32.4463ZM37.3423 18.0438L34.1383 13.6518L40.7983 1.15976H46.8463L37.3423 18.0438Z" fill="white"/>
<path d="M48.9937 25.9998V1.15976H54.5737V25.9998H48.9937ZM51.4417 25.9998V20.7798H67.7137V25.9998H51.4417ZM51.4417 15.8478V10.9158H66.0217V15.8478H51.4417ZM51.4417 6.37976V1.15976H67.5697V6.37976H51.4417Z" fill="white"/>
<path d="M84.9506 18.0798L75.4826 1.15976H81.7466L88.5506 13.6518L84.9506 18.0798ZM84.2666 25.9998V12.2838H89.8106V25.9998H84.2666ZM89.1626 18.0438L85.9586 13.6518L92.6186 1.15976H98.6666L89.1626 18.0438Z" fill="white"/>
<path d="M100.814 25.9998V1.15976H106.394V25.9998H100.814ZM103.262 25.9998V20.7798H119.534V25.9998H103.262ZM103.262 15.8478V10.9158H117.842V15.8478H103.262ZM103.262 6.37976V1.15976H119.39V6.37976H103.262Z" fill="white"/>
<path d="M133.904 26.5038C131.576 26.5038 129.524 25.9998 127.748 24.9918C125.996 23.9598 124.616 22.4838 123.608 20.5638C122.624 18.6198 122.132 16.2918 122.132 13.5798C122.132 10.8678 122.624 8.55176 123.608 6.63176C124.616 4.68776 125.996 3.21176 127.748 2.20376C129.524 1.17176 131.576 0.655762 133.904 0.655762C136.232 0.655762 138.272 1.17176 140.024 2.20376C141.8 3.21176 143.18 4.68776 144.164 6.63176C145.172 8.55176 145.676 10.8678 145.676 13.5798C145.676 16.2918 145.172 18.6198 144.164 20.5638C143.18 22.4838 141.8 23.9598 140.024 24.9918C138.272 25.9998 136.232 26.5038 133.904 26.5038ZM133.904 21.2478C135.752 21.2478 137.228 20.6118 138.332 19.3398C139.436 18.0438 139.988 16.1238 139.988 13.5798C139.988 11.0358 139.436 9.12776 138.332 7.85576C137.228 6.55976 135.752 5.91176 133.904 5.91176C132.056 5.91176 130.58 6.55976 129.476 7.85576C128.372 9.12776 127.82 11.0358 127.82 13.5798C127.82 16.1238 128.372 18.0438 129.476 19.3398C130.58 20.6118 132.056 21.2478 133.904 21.2478Z" fill="white"/>
<path d="M161.393 25.9998L152.753 1.15976H158.441L167.081 25.9998H161.393ZM149.189 25.9998V1.15976H154.481V25.9998H149.189ZM165.353 25.9998V1.15976H170.645V25.9998H165.353Z" fill="white"/>
</svg>
